<?xml version="1.0" encoding="UTF-8" standalone="no"?>
<svg
   preserveAspectRatio="xMidYMid"
   viewBox="0 0 256 290"
   version="1.1"
   id="svg3"
   sodipodi:docname="tiktok.svg"
   inkscape:version="1.3.2 (091e20e, 2023-11-25, custom)"
   xmlns:inkscape="http://www.inkscape.org/namespaces/inkscape"
   xmlns:sodipodi="http://sodipodi.sourceforge.net/DTD/sodipodi-0.dtd"
   xmlns="http://www.w3.org/2000/svg"
   xmlns:svg="http://www.w3.org/2000/svg">
  <defs
     id="defs3" />
  <sodipodi:namedview
     id="namedview3"
     pagecolor="#ffffff"
     bordercolor="#000000"
     borderopacity="0.25"
     inkscape:showpageshadow="2"
     inkscape:pageopacity="0.0"
     inkscape:pagecheckerboard="0"
     inkscape:deskcolor="#d1d1d1"
     inkscape:zoom="0.94727926"
     inkscape:cx="38.003577"
     inkscape:cy="166.26565"
     inkscape:window-width="1920"
     inkscape:window-height="991"
     inkscape:window-x="2391"
     inkscape:window-y="-9"
     inkscape:window-maximized="1"
     inkscape:current-layer="svg3" />
  <path
     id="path1"
     style="fill:#ffffff"
     d="M 127.96875 0 L 127.96875 189.8457 C 127.89231 211.97451 109.92428 229.89453 87.761719 229.89453 C 81.255115 229.89453 75.110296 228.35044 69.669922 225.60742 C 68.030361 224.78032 66.456361 223.84386 64.955078 222.80859 C 66.456863 223.8442 68.033651 224.78007 69.673828 225.60742 C 64.340673 218.61833 61.457793 210.06831 61.470703 201.27734 C 61.470703 179.08501 79.47146 161.08984 101.67969 161.08984 C 105.81853 161.08884 109.9327 161.72373 113.87695 162.97461 L 113.87695 114.38086 C 109.26753 113.74946 104.61692 113.4818 99.966797 113.58008 L 99.966797 151.40234 L 99.964844 151.40234 L 99.964844 113.58008 C 99.965498 113.58006 99.966143 113.58009 99.966797 113.58008 L 99.966797 102.81055 C 95.969901 102.26453 91.938903 101.99021 87.904297 101.99219 C 39.354945 101.99219 9.4738937e-15 141.32713 0 189.8457 C 0 220.26161 15.464342 247.06628 38.964844 262.83594 C 38.966794 262.83725 38.968752 262.83853 38.970703 262.83984 C 38.971036 262.84018 38.97037 262.84146 38.970703 262.8418 C 54.932368 279.15339 77.192247 289.27344 101.81836 289.27344 C 150.36573 289.27344 189.72266 249.94056 189.72266 201.41602 L 189.72266 104.42383 C 208.4002 117.76766 231.28017 125.61719 255.99219 125.61719 L 255.99219 78.087891 C 251.31525 78.088891 246.64989 77.601762 242.07422 76.632812 L 242.07422 76.630859 L 242.07422 66.513672 C 229.63583 66.532532 217.44179 63.05084 206.88867 56.466797 C 197.34377 46.04386 191.07678 32.574595 189.7207 17.683594 L 189.7207 11.570312 L 176.53125 11.570312 A 67.7881 67.7881 0 0 1 175.80273 6.1132812 L 175.80273 0 L 127.96875 0 z M 221.66602 68.523438 C 222.04762 68.753408 222.4127 69.010182 222.79883 69.232422 C 222.41205 69.009508 222.04784 68.753845 221.66602 68.523438 z M 225.48828 70.648438 C 226.12115 70.975123 226.73752 71.332355 227.38086 71.638672 C 226.73638 71.331407 226.12111 70.975594 225.48828 70.648438 z M 229.49023 72.546875 C 230.37296 72.930368 231.24471 73.338338 232.14453 73.683594 C 231.24269 73.337351 230.37267 72.930705 229.49023 72.546875 z M 233.79883 74.248047 C 234.87543 74.628997 235.9472 75.023847 237.04492 75.349609 C 235.94428 75.023264 234.87483 74.628912 233.79883 74.248047 z M 175.80273 92.849609 C 182.80883 97.853537 190.40534 102.08506 198.4668 105.41992 C 190.40534 102.08506 182.80882 97.853537 175.80273 92.849609 z M 206.67773 108.45117 C 210.85667 109.81277 215.14229 110.93948 219.51758 111.81641 C 215.14229 110.93948 210.85667 109.81277 206.67773 108.45117 z M 90.908203 149.64258 C 91.110253 149.65823 91.306613 149.69231 91.507812 149.71094 C 91.307447 149.69239 91.108873 149.65812 90.908203 149.64258 z M 93.996094 150.00195 C 94.367296 150.0597 94.727957 150.14706 95.095703 150.21484 C 94.728473 150.14712 94.365018 150.05943 93.996094 150.00195 z M 97.009766 150.58984 C 97.79147 150.77349 98.557135 150.99643 99.320312 151.22461 C 98.554412 150.99585 97.78663 150.7724 97.009766 150.58984 z M 49.361328 177.75586 C 48.186622 181.53104 47.554688 185.54541 47.554688 189.70703 C 47.554688 196.57209 49.275082 203.03562 52.310547 208.6875 C 49.2744 203.03514 47.552734 196.5741 47.552734 189.70898 C 47.552734 185.54773 48.186622 181.53091 49.361328 177.75586 z M 52.3125 208.68945 C 54.04749 211.91941 56.211512 214.88302 58.728516 217.50781 C 56.211829 214.88335 54.04745 211.91887 52.3125 208.68945 z M 132.6582 226.89648 C 131.83845 227.88579 130.97192 228.8341 130.0625 229.74023 C 130.9716 228.83447 131.83871 227.88535 132.6582 226.89648 z M 83.533203 237.15039 C 86.258787 238.53028 89.162324 239.60999 92.201172 240.34375 C 89.162323 239.60988 86.258787 238.53046 83.533203 237.15039 z M 109.76562 240.65234 C 107.15327 241.18558 104.44781 241.4668 101.67773 241.4668 C 100.04537 241.4668 98.436823 241.36864 96.855469 241.17969 C 98.436822 241.36861 100.04538 241.46484 101.67773 241.46484 C 104.44756 241.46484 107.15338 241.18553 109.76562 240.65234 z " />
</svg>
