<?xml version="1.0" encoding="UTF-8" standalone="no"?>
<svg
   viewBox="0 0 256 180"
   width="256"
   height="180"
   preserveAspectRatio="xMidYMid"
   version="1.1"
   id="svg2"
   sodipodi:docname="youtube.svg"
   inkscape:version="1.3.2 (091e20e, 2023-11-25, custom)"
   xmlns:inkscape="http://www.inkscape.org/namespaces/inkscape"
   xmlns:sodipodi="http://sodipodi.sourceforge.net/DTD/sodipodi-0.dtd"
   xmlns="http://www.w3.org/2000/svg"
   xmlns:svg="http://www.w3.org/2000/svg">
  <defs
     id="defs2" />
  <sodipodi:namedview
     id="namedview2"
     pagecolor="#ffffff"
     bordercolor="#000000"
     borderopacity="0.25"
     inkscape:showpageshadow="2"
     inkscape:pageopacity="0.0"
     inkscape:pagecheckerboard="0"
     inkscape:deskcolor="#d1d1d1"
     inkscape:zoom="1.9394531"
     inkscape:cx="92.551863"
     inkscape:cy="88.426989"
     inkscape:window-width="1920"
     inkscape:window-height="991"
     inkscape:window-x="2391"
     inkscape:window-y="-9"
     inkscape:window-maximized="1"
     inkscape:current-layer="svg2" />
  <path
     id="path1"
     d="M 127.86914 0 C 127.86914 0 47.912855 0.16403667 28.046875 5.5820312 A 32.18 32.18 0 0 0 5.390625 28.240234 C -0.61836899 63.538199 -2.950304 117.32497 5.5546875 151.21094 A 32.18 32.18 0 0 0 28.210938 173.86719 C 48.076918 179.28518 128.0332 179.28516 128.0332 179.28516 C 128.0332 179.28516 207.98854 179.28518 227.85352 173.86719 A 32.18 32.18 0 0 0 250.50977 151.21094 C 256.84776 115.86297 258.80069 62.110138 250.3457 28.076172 L 250.3457 28.074219 A 32.18 32.18 0 0 0 227.68945 5.4179688 C 207.82347 -2.5832e-05 127.86914 1.1842367e-15 127.86914 0 z M 102.42188 51.224609 L 168.74805 89.642578 L 102.42188 128.06055 L 102.42188 51.224609 z "
     style="fill:#ffffff" />
</svg>
